<?xml version="1.0" encoding="iso-8859-1"?>
<!-- Uploaded to: SVG Repo, www.svgrepo.com, Generator: SVG Repo Mixer Tools -->
<svg fill="#000000" version="1.1" id="Layer_1" xmlns="http://www.w3.org/2000/svg" xmlns:xlink="http://www.w3.org/1999/xlink" 
	 viewBox="0 0 512.001 512.001" xml:space="preserve">
<g>
	<g>
		<path d="M271.209,126.423V0h-30.417v126.423c-87.808,7.333-158.017,77.541-165.349,165.349h361.116
			C429.226,203.964,359.017,133.755,271.209,126.423z M355.451,248.781c-4.979-8.476-11.032-16.303-17.99-23.261
			c-19.301-19.301-44.778-31.17-71.737-33.421l2.531-30.312c34.117,2.849,66.334,17.845,90.714,42.225
			c8.782,8.782,16.422,18.661,22.708,29.362L355.451,248.781z"/>
	</g>
</g>
<g>
	<g>
		<path d="M188.365,322.189c6.953,30.937,34.629,54.127,67.635,54.127s60.682-23.19,67.635-54.127H188.365z"/>
	</g>
</g>
<g>
	<g>
		<rect x="240.792" y="401.668" width="30.417" height="110.333"/>
	</g>
</g>
<g>
	<g>
		
			<rect x="94.873" y="397.74" transform="matrix(0.7071 -0.7071 0.7071 0.7071 -248.0534 227.0432)" width="110.332" height="30.417"/>
	</g>
</g>
<g>
	<g>
		
			<rect x="346.758" y="357.784" transform="matrix(0.7071 -0.7071 0.7071 0.7071 -185.9824 376.8994)" width="30.417" height="110.332"/>
	</g>
</g>
</svg>