<?xml version="1.0" encoding="iso-8859-1"?>
<!-- Uploaded to: SVG Repo, www.svgrepo.com, Generator: SVG Repo Mixer Tools -->
<svg fill="#000000" height="800px" width="800px" version="1.1" id="Layer_1" xmlns="http://www.w3.org/2000/svg" xmlns:xlink="http://www.w3.org/1999/xlink" 
	 viewBox="0 0 512 512" xml:space="preserve">
<g>
	<g>
		<path d="M256.001,0L24.15,229.24h463.7L256.001,0z M256.001,189.768c-21.999,0-39.832-17.833-39.832-39.832
			s17.833-39.832,39.832-39.832s39.832,17.833,39.832,39.832S277.999,189.768,256.001,189.768z"/>
	</g>
</g>
<g>
	<g>
		<polygon points="426.702,259.652 426.702,448.697 396.29,448.697 396.29,259.652 365.879,259.652 365.879,448.697 
			335.467,448.697 335.467,259.652 305.055,259.652 305.055,295.582 274.644,295.582 274.644,259.652 244.232,259.652 
			244.232,295.582 213.821,295.582 213.821,259.652 183.409,259.652 183.409,448.697 152.998,448.697 152.998,259.652 
			122.586,259.652 122.586,448.697 92.174,448.697 92.174,259.652 61.763,259.652 61.763,463.903 61.763,479.109 61.763,512 
			92.174,512 92.174,479.109 122.586,479.109 152.998,479.109 183.409,479.109 196.037,479.109 196.037,512 226.449,512 
			226.449,479.109 244.232,479.109 274.644,479.109 285.552,479.109 285.552,512 315.964,512 315.964,479.109 335.467,479.109 
			365.879,479.109 396.29,479.109 426.702,479.109 426.702,512 457.113,512 457.113,479.109 457.113,463.903 457.113,259.652 		"/>
	</g>
</g>
</svg>